<svg width="140" height="140" viewBox="0 0 140 140" fill="none" xmlns="http://www.w3.org/2000/svg">
  <rect width="140" height="140" rx="32" fill="#CFE9FF"/>
  <path d="M23 66C23 43 43 26 70 26C97 26 117 43 117 66C117 84 102 99 80 106L70 120L60 106C38 99 23 84 23 66Z" fill="#4B7FB2"/>
  <ellipse cx="55" cy="62" rx="7" ry="8" fill="#F7FAFF"/>
  <ellipse cx="85" cy="62" rx="7" ry="8" fill="#F7FAFF"/>
  <circle cx="55" cy="63" r="3" fill="#243043"/>
  <circle cx="85" cy="63" r="3" fill="#243043"/>
  <path d="M53 79C58 84 64 86 70 86C76 86 82 84 87 79" stroke="#23364E" stroke-width="4" stroke-linecap="round"/>
  <circle cx="48" cy="75" r="3" fill="#9ED2FF"/>
  <circle cx="92" cy="75" r="3" fill="#9ED2FF"/>
</svg>
